<?xml version="1.0" standalone="no"?>
<!DOCTYPE svg PUBLIC "-//W3C//DTD SVG 20010904//EN"
 "http://www.w3.org/TR/2001/REC-SVG-20010904/DTD/svg10.dtd">
<svg version="1.0" xmlns="http://www.w3.org/2000/svg"
 width="512.000000pt" height="512.000000pt" viewBox="0 0 512.000000 512.000000"
 preserveAspectRatio="xMidYMid meet">
<metadata>
Created by potrace 1.11, written by Peter Selinger 2001-2013
</metadata>
<g transform="translate(0.000000,512.000000) scale(0.100000,-0.100000)"
fill="#000000" stroke="none">
<path d="M1019 4746 c-2 -3 -16 -7 -30 -10 -53 -9 -140 -59 -190 -108 -54 -54
-104 -145 -115 -213 -8 -45 -12 -2055 -4 -2055 3 0 65 17 138 37 l132 38 0
965 c0 1088 -5 1013 76 1055 39 21 53 21 804 20 498 0 765 -4 767 -10 2 -6 4
-219 6 -475 2 -509 0 -492 63 -555 55 -55 57 -55 565 -55 440 0 469 -1 470
-17 1 -10 2 -63 2 -117 l2 -100 134 -58 c74 -32 135 -58 136 -58 1 0 2 145 2
323 0 339 -3 370 -49 462 -25 50 -793 823 -861 867 -26 16 -74 39 -108 49 -58
18 -106 19 -998 19 -516 0 -940 -2 -942 -4z m2294 -683 c207 -208 377 -386
377 -395 0 -14 -39 -16 -405 -16 -223 0 -405 3 -406 6 -3 22 -5 798 -2 804 10
21 87 -50 436 -399z"/>
<path d="M1305 4200 c-68 -7 -82 -35 -79 -151 5 -132 -47 -121 541 -121 275 0
509 3 521 6 29 9 34 29 37 129 2 78 0 91 -19 113 l-21 25 -465 2 c-256 1 -487
0 -515 -3z"/>
<path d="M1309 3652 c-72 -5 -83 -23 -83 -139 0 -146 -53 -133 554 -133 l509
0 19 24 c16 20 19 40 18 115 -2 145 45 133 -507 135 -255 0 -485 0 -510 -2z"/>
<path d="M3205 3093 c-59 -8 -140 -43 -188 -83 -46 -38 -93 -126 -212 -400
-70 -162 -140 -322 -155 -355 -74 -164 -85 -198 -86 -279 -2 -107 24 -172 100
-254 42 -45 48 -49 668 -317 299 -130 557 -242 573 -250 144 -66 278 -120 319
-130 42 -10 114 -7 176 8 59 13 154 87 192 148 9 14 98 214 198 444 128 296
183 434 189 474 16 124 -44 261 -145 329 -18 12 -281 130 -585 263 -748 326
-890 386 -919 393 -42 9 -93 13 -125 9z m342 -404 c153 -66 292 -126 308 -134
70 -30 259 -112 530 -230 160 -69 296 -133 303 -142 6 -9 12 -26 12 -38 0 -12
-56 -151 -126 -311 -246 -568 -229 -534 -273 -534 -31 0 -1414 600 -1442 626
-10 9 -19 26 -19 37 0 17 97 254 165 402 13 28 41 93 63 145 22 52 56 130 76
173 20 42 36 80 36 84 0 18 36 43 61 43 16 0 154 -54 306 -121z"/>
<path d="M1470 2385 c-25 -7 -85 -24 -135 -38 -179 -50 -462 -129 -565 -157
-221 -61 -468 -130 -533 -148 -73 -21 -107 -44 -107 -73 0 -48 43 -175 66
-196 29 -27 19 -29 314 53 129 36 314 87 410 114 672 186 685 190 703 212 20
24 18 49 -13 150 -20 66 -47 99 -80 97 -8 0 -35 -7 -60 -14z"/>
<path d="M815 1721 c-67 -20 -125 -39 -130 -43 -6 -4 -10 -186 -9 -485 1 -533
2 -547 70 -648 39 -59 73 -92 135 -128 101 -59 45 -57 1449 -57 1367 0 1331
-1 1425 48 92 47 171 140 201 237 21 65 29 269 11 282 -12 9 -251 113 -260
113 -2 0 -4 -67 -4 -149 0 -164 -8 -191 -66 -235 l-28 -21 -1267 -1 c-835 0
-1277 3 -1297 9 -38 13 -71 44 -84 80 -7 19 -11 203 -11 533 0 277 -3 504 -7
503 -5 -1 -62 -17 -128 -38z"/>
<path d="M2660 1179 c-18 -4 -37 -12 -43 -18 -12 -12 -21 -159 -12 -198 13
-54 7 -53 409 -53 445 0 409 -12 412 134 2 88 1 95 -22 117 -24 22 -24 22
-368 23 -190 1 -359 -2 -376 -5z"/>
</g>
</svg>
