<?xml version="1.0" standalone="no"?>
<!DOCTYPE svg PUBLIC "-//W3C//DTD SVG 20010904//EN"
 "http://www.w3.org/TR/2001/REC-SVG-20010904/DTD/svg10.dtd">
<svg version="1.0" xmlns="http://www.w3.org/2000/svg"
 width="512.000000pt" height="512.000000pt" viewBox="0 0 512.000000 512.000000"
 preserveAspectRatio="xMidYMid meet">
<metadata>
Created by potrace 1.11, written by Peter Selinger 2001-2013
</metadata>
<g transform="translate(0.000000,512.000000) scale(0.100000,-0.100000)"
fill="#000000" stroke="none">
<path d="M3850 3434 l-995 -213 -1427 0 -1428 -1 0 -605 0 -604 147 -3 147 -3
56 -268 c32 -147 59 -269 61 -271 2 -2 571 118 1264 267 l1260 271 938 3 937
3 0 194 0 193 156 33 c146 31 155 34 150 54 -8 33 -246 1155 -246 1161 0 8 21
13 -1020 -211z m-510 -819 l0 -185 -34 0 c-18 0 -39 7 -46 15 -11 13 -15 13
-33 0 -57 -40 -130 5 -142 87 -14 93 27 168 93 168 19 0 43 -6 51 -14 14 -13
16 -10 13 35 -5 71 0 79 53 79 l45 0 0 -185z m440 0 l0 -185 -45 0 -45 0 0
185 0 185 45 0 45 0 0 -185z m288 157 c5 -31 -15 -52 -47 -52 -30 0 -51 16
-51 40 0 27 23 41 60 38 28 -2 36 -8 38 -26z m-2670 -49 c3 -18 10 -23 33 -23
27 0 29 -3 29 -35 0 -32 -2 -35 -30 -35 l-30 0 0 -60 0 -60 30 0 c27 0 30 -3
30 -34 0 -38 -12 -46 -71 -46 -29 0 -47 7 -64 25 -22 21 -25 33 -25 100 0 60
-3 75 -15 75 -21 0 -19 36 4 52 11 8 25 26 32 41 10 23 18 27 43 25 23 -2 32
-9 34 -25z m822 2 c0 -21 5 -25 30 -25 28 0 30 -3 30 -35 0 -32 -2 -35 -30
-35 l-30 0 0 -60 0 -60 30 0 c27 0 30 -3 30 -34 0 -38 -12 -46 -71 -46 -29 0
-47 7 -64 25 -22 21 -25 33 -25 100 0 60 -3 75 -15 75 -21 0 -19 37 4 49 10 6
24 24 31 41 10 25 18 30 46 30 30 0 34 -3 34 -25z m-1606 -31 c19 -7 20 -24 5
-58 -10 -21 -15 -23 -39 -14 -20 6 -35 6 -50 -2 -18 -9 -21 -19 -18 -58 l3
-47 58 2 57 2 0 -33 c0 -39 -28 -56 -91 -56 -82 0 -129 49 -129 135 0 86 49
134 137 135 28 0 58 -3 67 -6z m270 -26 c56 -56 56 -156 1 -208 -38 -35 -119
-39 -165 -8 -71 48 -78 152 -15 215 30 30 39 33 90 33 51 0 60 -3 89 -32z
m165 15 c9 -17 10 -17 28 0 30 27 98 23 128 -8 24 -23 25 -31 25 -135 l0 -110
-45 0 -45 0 0 83 c0 94 -15 130 -47 111 -14 -9 -19 -28 -23 -100 l-5 -89 -45
0 -45 0 -3 133 -3 132 35 0 c23 0 38 -6 45 -17z m662 -11 c26 -23 33 -38 37
-80 l5 -52 -82 0 c-81 0 -95 -6 -66 -30 11 -9 32 -11 70 -6 l55 6 0 -30 c0
-37 -23 -50 -92 -50 -99 0 -157 64 -144 160 4 34 14 53 41 78 30 28 41 32 90
32 46 0 60 -5 86 -28z m159 13 c0 -8 4 -15 9 -15 5 0 14 7 21 15 21 25 96 20
125 -10 24 -23 25 -31 25 -135 l0 -110 -45 0 -45 0 0 81 c0 107 -18 140 -54
103 -12 -12 -16 -36 -16 -100 l0 -85 -47 3 -48 3 -3 133 -3 132 41 0 c29 0 40
-4 40 -15z m534 -1 c6 -16 8 -16 24 0 24 21 91 21 120 0 21 -15 25 -15 41 0
25 22 93 21 122 -3 22 -18 24 -27 27 -136 l4 -116 -49 3 -48 3 -3 93 c-2 74
-6 94 -19 99 -29 11 -43 -25 -43 -114 l0 -84 -47 3 -48 3 -3 93 c-2 74 -6 94
-19 99 -29 11 -43 -25 -43 -114 l0 -84 -47 3 -48 3 -3 119 c-1 66 0 126 2 133
8 19 72 17 80 -3z m601 -17 c57 -57 57 -153 0 -207 -38 -35 -119 -39 -165 -8
-70 47 -77 153 -15 215 30 30 39 33 90 33 51 0 60 -3 90 -33z m601 -1 c29 -29
34 -41 34 -80 l0 -46 -80 0 c-44 0 -80 -4 -80 -8 0 -30 79 -44 121 -22 17 10
19 7 19 -28 0 -45 -11 -52 -95 -52 -104 0 -163 78 -135 181 16 58 60 89 127
89 49 0 59 -4 89 -34z m464 -102 l0 -135 -47 3 -48 3 -3 119 c-1 66 0 126 2
133 3 8 23 13 51 13 l45 0 0 -136z m268 102 c36 -33 37 -37 37 -101 0 -64 -1
-68 -37 -101 -31 -28 -45 -34 -83 -34 -78 0 -129 42 -135 110 -6 69 0 92 34
126 31 31 40 34 90 34 50 0 60 -4 94 -34z m-423 -160 c16 -12 18 -19 10 -43
-18 -50 -95 -41 -95 11 0 43 46 61 85 32z"/>
<path d="M3197 2618 c-11 -6 -17 -22 -17 -46 0 -48 12 -65 41 -60 18 2 25 10
27 32 7 61 -16 94 -51 74z"/>
<path d="M764 2606 c-17 -67 20 -134 52 -92 14 20 19 72 8 100 -10 26 -53 20
-60 -8z"/>
<path d="M1608 2629 c-29 -16 -21 -29 17 -29 37 0 43 8 23 28 -14 14 -18 14
-40 1z"/>
<path d="M2892 2618 c-17 -17 -15 -80 2 -104 32 -42 69 25 52 92 -7 26 -34 32
-54 12z"/>
<path d="M3496 2624 c-22 -22 -21 -24 19 -24 37 0 49 22 19 34 -21 8 -20 8
-38 -10z"/>
<path d="M4220 2611 c-14 -28 -12 -74 4 -97 32 -42 69 25 52 92 -8 29 -41 32
-56 5z"/>
</g>
</svg>
