<svg width="85" height="25" viewBox="0 0 85 25" fill="none" xmlns="http://www.w3.org/2000/svg">
<path d="M41.536 7.688C41.312 8.576 40.88 9.212 40.24 9.596C39.6 9.972 38.844 10.16 37.972 10.16C37.148 10.16 36.44 10 35.848 9.68C35.256 9.352 34.8 8.884 34.48 8.276C34.16 7.668 34 6.936 34 6.08C34 5.224 34.16 4.492 34.48 3.884C34.8 3.276 35.256 2.812 35.848 2.492C36.44 2.164 37.144 2 37.96 2C38.528 2 39.056 2.08 39.544 2.24C40.032 2.4 40.444 2.652 40.78 2.996C41.116 3.332 41.344 3.764 41.464 4.292L39.34 5.144C39.252 4.64 39.096 4.304 38.872 4.136C38.656 3.96 38.376 3.872 38.032 3.872C37.544 3.872 37.168 4.056 36.904 4.424C36.648 4.784 36.52 5.336 36.52 6.08C36.52 6.816 36.644 7.368 36.892 7.736C37.14 8.104 37.536 8.288 38.08 8.288C38.408 8.288 38.684 8.192 38.908 8C39.132 7.808 39.28 7.508 39.352 7.1L41.536 7.688Z" fill="#272B47"/>
<path d="M45.3005 3.92C45.9485 3.92 46.5165 4.044 47.0045 4.292C47.5005 4.532 47.8845 4.888 48.1565 5.36C48.4285 5.824 48.5645 6.384 48.5645 7.04C48.5645 7.696 48.4285 8.26 48.1565 8.732C47.8845 9.196 47.5005 9.552 47.0045 9.8C46.5165 10.04 45.9485 10.16 45.3005 10.16C44.6525 10.16 44.0845 10.04 43.5965 9.8C43.1085 9.552 42.7245 9.196 42.4445 8.732C42.1725 8.26 42.0365 7.696 42.0365 7.04C42.0365 6.384 42.1725 5.824 42.4445 5.36C42.7245 4.888 43.1085 4.532 43.5965 4.292C44.0845 4.044 44.6525 3.92 45.3005 3.92ZM45.3005 5.588C45.0365 5.588 44.8325 5.696 44.6885 5.912C44.5445 6.12 44.4725 6.496 44.4725 7.04C44.4725 7.584 44.5445 7.964 44.6885 8.18C44.8325 8.388 45.0365 8.492 45.3005 8.492C45.5645 8.492 45.7685 8.388 45.9125 8.18C46.0565 7.964 46.1285 7.584 46.1285 7.04C46.1285 6.496 46.0565 6.12 45.9125 5.912C45.7685 5.696 45.5645 5.588 45.3005 5.588Z" fill="#272B47"/>
<path d="M49.4724 10.04V4.04H51.6564L51.7164 5.312C51.8924 4.864 52.1564 4.52 52.5084 4.28C52.8604 4.04 53.2844 3.92 53.7804 3.92C54.3884 3.92 54.8684 4.1 55.2204 4.46C55.5724 4.812 55.7484 5.32 55.7484 5.984V10.04H53.3244V6.608C53.3244 6.28 53.2684 6.052 53.1564 5.924C53.0524 5.796 52.9004 5.732 52.7004 5.732C52.4604 5.732 52.2644 5.82 52.1124 5.996C51.9684 6.172 51.8964 6.464 51.8964 6.872V10.04H49.4724Z" fill="#272B47"/>
<path d="M61.4501 4.04V5.708H59.8181V7.736C59.8181 8.016 59.8781 8.216 59.9981 8.336C60.1261 8.456 60.3141 8.516 60.5621 8.516C60.7381 8.516 60.8901 8.5 61.0181 8.468C61.1461 8.428 61.2661 8.376 61.3781 8.312L61.5341 9.728C61.3341 9.864 61.0701 9.968 60.7421 10.04C60.4221 10.12 60.1061 10.16 59.7941 10.16C59.0261 10.16 58.4341 10.008 58.0181 9.704C57.6021 9.392 57.3941 8.864 57.3941 8.12V5.708H56.4101V4.04H57.3941V2.732L59.8181 2.06V4.04H61.4501Z" fill="#272B47"/>
<path d="M65.2944 10.16C64.2544 10.16 63.4384 9.888 62.8464 9.344C62.2544 8.8 61.9584 8.032 61.9584 7.04C61.9584 6.376 62.0944 5.812 62.3664 5.348C62.6384 4.884 63.0184 4.532 63.5064 4.292C63.9944 4.044 64.5584 3.92 65.1984 3.92C65.8544 3.92 66.4104 4.044 66.8664 4.292C67.3304 4.532 67.6824 4.868 67.9224 5.3C68.1704 5.732 68.2944 6.236 68.2944 6.812C68.2944 7.108 68.2744 7.36 68.2344 7.568H64.2864C64.3424 7.928 64.4544 8.176 64.6224 8.312C64.7984 8.44 65.0304 8.504 65.3184 8.504C65.5664 8.504 65.7624 8.452 65.9064 8.348C66.0584 8.244 66.1664 8.1 66.2304 7.916L68.1744 8.492C68.0704 8.86 67.8744 9.168 67.5864 9.416C67.2984 9.664 66.9544 9.852 66.5544 9.98C66.1544 10.1 65.7344 10.16 65.2944 10.16ZM65.1984 5.564C64.9424 5.564 64.7384 5.636 64.5864 5.78C64.4424 5.924 64.3464 6.168 64.2984 6.512H66.0024C65.9704 6.2 65.8904 5.964 65.7624 5.804C65.6424 5.644 65.4544 5.564 65.1984 5.564Z" fill="#272B47"/>
<path d="M69.1833 10.04V4.04H71.3674L71.4274 5.312C71.6034 4.864 71.8674 4.52 72.2194 4.28C72.5714 4.04 72.9954 3.92 73.4914 3.92C74.0994 3.92 74.5794 4.1 74.9314 4.46C75.2834 4.812 75.4594 5.32 75.4594 5.984V10.04H73.0354V6.608C73.0354 6.28 72.9794 6.052 72.8674 5.924C72.7634 5.796 72.6114 5.732 72.4114 5.732C72.1714 5.732 71.9754 5.82 71.8234 5.996C71.6794 6.172 71.6074 6.464 71.6074 6.872V10.04H69.1833Z" fill="#272B47"/>
<path d="M81.161 4.04V5.708H79.529V7.736C79.529 8.016 79.589 8.216 79.709 8.336C79.837 8.456 80.025 8.516 80.273 8.516C80.449 8.516 80.601 8.5 80.729 8.468C80.857 8.428 80.977 8.376 81.089 8.312L81.245 9.728C81.045 9.864 80.781 9.968 80.453 10.04C80.133 10.12 79.817 10.16 79.505 10.16C78.737 10.16 78.145 10.008 77.729 9.704C77.313 9.392 77.105 8.864 77.105 8.12V5.708H76.121V4.04H77.105V2.732L79.529 2.06V4.04H81.161Z" fill="#272B47"/>
<path d="M43.708 13.5V21.42H41.548V18.252L41.596 15.696H41.572L39.832 21.42H37.864L36.148 15.696H36.112L36.16 18.252V21.42H34V13.5H37.456L38.524 17.256L38.92 18.828H38.944L39.34 17.256L40.408 13.5H43.708Z" fill="#272B47"/>
<path d="M48.0005 15.3C48.6485 15.3 49.2165 15.424 49.7045 15.672C50.2005 15.912 50.5845 16.268 50.8565 16.74C51.1285 17.204 51.2645 17.764 51.2645 18.42C51.2645 19.076 51.1285 19.64 50.8565 20.112C50.5845 20.576 50.2005 20.932 49.7045 21.18C49.2165 21.42 48.6485 21.54 48.0005 21.54C47.3525 21.54 46.7845 21.42 46.2965 21.18C45.8085 20.932 45.4245 20.576 45.1445 20.112C44.8725 19.64 44.7365 19.076 44.7365 18.42C44.7365 17.764 44.8725 17.204 45.1445 16.74C45.4245 16.268 45.8085 15.912 46.2965 15.672C46.7845 15.424 47.3525 15.3 48.0005 15.3ZM48.0005 16.968C47.7365 16.968 47.5325 17.076 47.3885 17.292C47.2445 17.5 47.1725 17.876 47.1725 18.42C47.1725 18.964 47.2445 19.344 47.3885 19.56C47.5325 19.768 47.7365 19.872 48.0005 19.872C48.2645 19.872 48.4685 19.768 48.6125 19.56C48.7565 19.344 48.8285 18.964 48.8285 18.42C48.8285 17.876 48.7565 17.5 48.6125 17.292C48.4685 17.076 48.2645 16.968 48.0005 16.968Z" fill="#272B47"/>
<path d="M54.3324 21.54C53.5964 21.54 53.0164 21.272 52.5924 20.736C52.1764 20.192 51.9684 19.428 51.9684 18.444C51.9684 17.444 52.1844 16.672 52.6164 16.128C53.0484 15.576 53.6324 15.3 54.3684 15.3C54.7924 15.3 55.1484 15.404 55.4364 15.612C55.7244 15.82 55.9444 16.096 56.0964 16.44V12.948H58.5204V21.42H56.3364L56.2644 20.232C56.0964 20.632 55.8484 20.952 55.5204 21.192C55.1924 21.424 54.7964 21.54 54.3324 21.54ZM55.2684 19.812C55.5244 19.812 55.7244 19.696 55.8684 19.464C56.0204 19.232 56.0964 18.88 56.0964 18.408C56.0964 17.968 56.0244 17.632 55.8804 17.4C55.7444 17.16 55.5404 17.04 55.2684 17.04C55.0044 17.04 54.7924 17.144 54.6324 17.352C54.4804 17.552 54.4044 17.908 54.4044 18.42C54.4044 18.932 54.4804 19.292 54.6324 19.5C54.7844 19.708 54.9964 19.812 55.2684 19.812Z" fill="#272B47"/>
<path d="M62.7678 21.54C61.7278 21.54 60.9118 21.268 60.3198 20.724C59.7278 20.18 59.4318 19.412 59.4318 18.42C59.4318 17.756 59.5678 17.192 59.8398 16.728C60.1118 16.264 60.4918 15.912 60.9798 15.672C61.4678 15.424 62.0318 15.3 62.6718 15.3C63.3278 15.3 63.8838 15.424 64.3398 15.672C64.8038 15.912 65.1558 16.248 65.3958 16.68C65.6438 17.112 65.7678 17.616 65.7678 18.192C65.7678 18.488 65.7478 18.74 65.7078 18.948H61.7598C61.8158 19.308 61.9278 19.556 62.0958 19.692C62.2718 19.82 62.5038 19.884 62.7918 19.884C63.0398 19.884 63.2358 19.832 63.3798 19.728C63.5318 19.624 63.6398 19.48 63.7038 19.296L65.6478 19.872C65.5438 20.24 65.3478 20.548 65.0598 20.796C64.7718 21.044 64.4278 21.232 64.0278 21.36C63.6278 21.48 63.2078 21.54 62.7678 21.54ZM62.6718 16.944C62.4158 16.944 62.2118 17.016 62.0598 17.16C61.9158 17.304 61.8198 17.548 61.7718 17.892H63.4758C63.4438 17.58 63.3638 17.344 63.2358 17.184C63.1158 17.024 62.9278 16.944 62.6718 16.944Z" fill="#272B47"/>
<path d="M69.0688 12.948V19.188C69.0688 19.444 69.1088 19.628 69.1888 19.74C69.2688 19.852 69.4088 19.908 69.6088 19.908C69.7128 19.908 69.8008 19.904 69.8728 19.896C69.9448 19.88 70.0248 19.856 70.1128 19.824L69.9808 21.192C69.8368 21.296 69.6328 21.38 69.3688 21.444C69.1128 21.508 68.8568 21.54 68.6008 21.54C67.9048 21.54 67.4048 21.384 67.1008 21.072C66.7968 20.76 66.6448 20.248 66.6448 19.536V12.948H69.0688Z" fill="#272B47"/>
<path d="M72.1927 19.14C72.6167 19.14 72.9447 19.244 73.1767 19.452C73.4167 19.66 73.5367 19.952 73.5367 20.328C73.5367 20.704 73.4167 20.996 73.1767 21.204C72.9447 21.412 72.6167 21.516 72.1927 21.516C71.7687 21.516 71.4367 21.412 71.1967 21.204C70.9647 20.996 70.8487 20.704 70.8487 20.328C70.8487 19.952 70.9647 19.66 71.1967 19.452C71.4367 19.244 71.7687 19.14 72.1927 19.14Z" fill="#272B47"/>
<path d="M75.7907 14.892C75.3107 14.892 74.9627 14.812 74.7467 14.652C74.5387 14.484 74.4347 14.208 74.4347 13.824C74.4347 13.44 74.5387 13.164 74.7467 12.996C74.9627 12.828 75.3107 12.744 75.7907 12.744C76.2787 12.744 76.6267 12.828 76.8347 12.996C77.0427 13.164 77.1467 13.44 77.1467 13.824C77.1467 14.208 77.0427 14.484 76.8347 14.652C76.6267 14.812 76.2787 14.892 75.7907 14.892ZM77.0027 15.42V21.42H74.5787V15.42H77.0027Z" fill="#272B47"/>
<path d="M81.1763 15.3C81.8243 15.3 82.3923 15.424 82.8803 15.672C83.3763 15.912 83.7603 16.268 84.0323 16.74C84.3043 17.204 84.4403 17.764 84.4403 18.42C84.4403 19.076 84.3043 19.64 84.0323 20.112C83.7603 20.576 83.3763 20.932 82.8803 21.18C82.3923 21.42 81.8243 21.54 81.1763 21.54C80.5283 21.54 79.9603 21.42 79.4723 21.18C78.9843 20.932 78.6003 20.576 78.3203 20.112C78.0483 19.64 77.9123 19.076 77.9123 18.42C77.9123 17.764 78.0483 17.204 78.3203 16.74C78.6003 16.268 78.9843 15.912 79.4723 15.672C79.9603 15.424 80.5283 15.3 81.1763 15.3ZM81.1763 16.968C80.9123 16.968 80.7083 17.076 80.5643 17.292C80.4203 17.5 80.3483 17.876 80.3483 18.42C80.3483 18.964 80.4203 19.344 80.5643 19.56C80.7083 19.768 80.9123 19.872 81.1763 19.872C81.4403 19.872 81.6443 19.768 81.7883 19.56C81.9323 19.344 82.0043 18.964 82.0043 18.42C82.0043 17.876 81.9323 17.5 81.7883 17.292C81.6443 17.076 81.4403 16.968 81.1763 16.968Z" fill="#272B47"/>
<path d="M20.3827 20.3125H16.4661C16.2497 20.3125 16.0744 20.4873 16.0744 20.7031V21.4844C16.0744 21.7002 16.2497 21.875 16.4661 21.875H20.3827C20.5991 21.875 20.7744 21.7002 20.7744 21.4844V20.7031C20.7744 20.4873 20.5991 20.3125 20.3827 20.3125ZM8.63277 4.6875H14.1161C14.3325 4.6875 14.5078 4.5127 14.5078 4.29688V3.51563C14.5078 3.2998 14.3325 3.125 14.1161 3.125H8.63277C8.41638 3.125 8.24111 3.2998 8.24111 3.51563V4.29688C8.24111 4.5127 8.41638 4.6875 8.63277 4.6875ZM8.63277 7.8125H14.1161C14.3325 7.8125 14.5078 7.6377 14.5078 7.42188V6.64063C14.5078 6.4248 14.3325 6.25 14.1161 6.25H8.63277C8.41638 6.25 8.24111 6.4248 8.24111 6.64063V7.42188C8.24111 7.6377 8.41638 7.8125 8.63277 7.8125ZM23.2174 4.78418L19.1108 0.688477C18.6702 0.249023 18.0729 0 17.4516 0H7.45729C6.16039 0.00488281 5.10779 1.05469 5.10779 2.34814V22.6567C5.10779 23.9502 6.16039 25 7.45729 25H21.5582C22.8551 25 23.9077 23.9502 23.9077 22.6567V6.44385C23.9077 5.82422 23.6581 5.22363 23.2174 4.78418ZM17.6426 1.59131C17.7796 1.62549 17.902 1.69385 18.0048 1.79639L22.1115 5.89209C22.2143 5.99463 22.2828 6.1167 22.3171 6.25342H17.6426V1.59131ZM22.3416 22.6567C22.3416 23.0864 21.9891 23.438 21.5582 23.438H7.45729C7.02646 23.438 6.67396 23.0864 6.67396 22.6567V2.34814C6.67396 1.91846 7.02646 1.5625 7.45729 1.5625H16.0759V6.64404C16.0759 7.29346 16.5997 7.8125 17.2509 7.8125H22.3416V22.6567Z" fill="#575BA5"/>
<rect x="20.7799" y="8.44508" width="8.64559" height="10.9815" rx="0.4" transform="rotate(23.5 20.7799 8.44508)" fill="white"/>
<path d="M28.1133 13.7551L20.2266 10.3259C19.6188 10.0616 18.9119 10.3401 18.6476 10.9478L16.7336 15.3497C16.4694 15.9575 16.7478 16.6644 17.3556 16.9287L25.2423 20.3579C25.8501 20.6222 26.557 20.3437 26.8213 19.736L28.7353 15.3341C28.9995 14.7263 28.7211 14.0194 28.1133 13.7551Z" stroke="#575BA5" stroke-width="1.6"/>
<path d="M9.70808 12.8287L2.13286 14.9295C1.60066 15.0771 1.28888 15.6282 1.43647 16.1604L1.65026 16.9313C1.79785 17.4635 2.34893 17.7753 2.88113 17.6277L10.4563 15.5269C10.9885 15.3793 11.3003 14.8282 11.1527 14.296L10.9389 13.5251C10.7914 12.9929 10.2403 12.6811 9.70808 12.8287Z" fill="#575BA5" stroke="white" stroke-width="1.2"/>
</svg>
