<svg width="83" height="25" fill="none" xmlns="http://www.w3.org/2000/svg"><path d="M39.536 7.688c-.224.888-.656 1.524-1.296 1.908-.64.376-1.396.564-2.268.564-.824 0-1.532-.16-2.124-.48a3.356 3.356 0 01-1.368-1.404c-.32-.608-.48-1.34-.48-2.196 0-.856.16-1.588.48-2.196a3.282 3.282 0 011.368-1.392C34.44 2.164 35.144 2 35.96 2c.568 0 1.096.08 1.584.24.488.16.9.412 1.236.756.336.336.564.768.684 1.296l-2.124.852c-.088-.504-.244-.84-.468-1.008-.216-.176-.496-.264-.84-.264-.488 0-.864.184-1.128.552-.256.36-.384.912-.384 1.656 0 .736.124 1.288.372 1.656.248.368.644.552 1.188.552.328 0 .604-.096.828-.288.224-.192.372-.492.444-.9l2.184.588zM43.3 3.92c.649 0 1.217.124 1.705.372.495.24.88.596 1.151 1.068.273.464.409 1.024.409 1.68 0 .656-.136 1.22-.408 1.692-.272.464-.656.82-1.152 1.068-.489.24-1.056.36-1.705.36-.647 0-1.215-.12-1.703-.36a2.8 2.8 0 01-1.153-1.068c-.272-.472-.408-1.036-.408-1.692 0-.656.136-1.216.408-1.68.28-.472.664-.828 1.152-1.068.489-.248 1.057-.372 1.705-.372zm0 1.668a.693.693 0 00-.611.324c-.145.208-.217.584-.217 1.128 0 .544.072.924.216 1.14a.7.7 0 00.612.312.7.7 0 00.613-.312c.144-.216.216-.596.216-1.14 0-.544-.072-.92-.216-1.128a.693.693 0 00-.612-.324zM47.472 10.04v-6h2.184l.06 1.272c.176-.448.44-.792.792-1.032.352-.24.776-.36 1.272-.36.608 0 1.088.18 1.44.54.352.352.528.86.528 1.524v4.056h-2.424V6.608c0-.328-.056-.556-.168-.684-.104-.128-.256-.192-.456-.192a.741.741 0 00-.588.264c-.144.176-.216.468-.216.876v3.168h-2.424zM59.45 4.04v1.668h-1.632v2.028c0 .28.06.48.18.6.128.12.316.18.564.18.176 0 .328-.016.456-.048.128-.04.248-.092.36-.156l.156 1.416c-.2.136-.464.24-.792.312-.32.08-.636.12-.948.12-.768 0-1.36-.152-1.776-.456-.416-.312-.624-.84-.624-1.584V5.708h-.984V4.04h.984V2.732l2.424-.672v1.98h1.632zM63.294 10.16c-1.04 0-1.856-.272-2.448-.816-.592-.544-.888-1.312-.888-2.304 0-.664.136-1.228.408-1.692a2.645 2.645 0 011.14-1.056c.488-.248 1.052-.372 1.692-.372.656 0 1.212.124 1.668.372.464.24.816.576 1.056 1.008.248.432.372.936.372 1.512 0 .296-.02.548-.06.756h-3.948c.056.36.168.608.336.744.176.128.408.192.696.192.248 0 .444-.052.588-.156a.843.843 0 00.324-.432l1.944.576c-.104.368-.3.676-.588.924a2.927 2.927 0 01-1.032.564c-.4.12-.82.18-1.26.18zm-.096-4.596c-.256 0-.46.072-.612.216-.144.144-.24.388-.288.732h1.704c-.032-.312-.112-.548-.24-.708-.12-.16-.308-.24-.564-.24zM67.183 10.04v-6h2.184l.06 1.272c.176-.448.44-.792.792-1.032.352-.24.776-.36 1.272-.36.608 0 1.088.18 1.44.54.352.352.528.86.528 1.524v4.056h-2.424V6.608c0-.328-.056-.556-.168-.684-.104-.128-.256-.192-.456-.192a.741.741 0 00-.588.264c-.144.176-.216.468-.216.876v3.168h-2.424zM79.161 4.04v1.668h-1.632v2.028c0 .28.06.48.18.6.128.12.316.18.564.18.176 0 .328-.016.456-.048.128-.04.248-.092.36-.156l.156 1.416c-.2.136-.464.24-.792.312-.32.08-.636.12-.948.12-.768 0-1.36-.152-1.776-.456-.416-.312-.624-.84-.624-1.584V5.708h-.984V4.04h.984V2.732l2.424-.672v1.98h1.632zM41.708 13.5v7.92h-2.16v-3.168l.048-2.556h-.024l-1.74 5.724h-1.968l-1.716-5.724h-.036l.048 2.556v3.168H32V13.5h3.456l1.068 3.756.396 1.572h.024l.396-1.572 1.068-3.756h3.3zM46 15.3c.648 0 1.217.124 1.705.372.495.24.88.596 1.151 1.068.273.464.408 1.024.408 1.68 0 .656-.136 1.22-.408 1.692-.272.464-.656.82-1.151 1.068-.488.24-1.056.36-1.704.36-.648 0-1.216-.12-1.704-.36a2.8 2.8 0 01-1.152-1.068c-.273-.472-.409-1.036-.409-1.692 0-.656.137-1.216.409-1.68.28-.472.663-.828 1.151-1.068.489-.248 1.056-.372 1.705-.372zm0 1.668a.693.693 0 00-.611.324c-.145.208-.217.584-.217 1.128 0 .544.073.924.217 1.14a.7.7 0 00.611.312.7.7 0 00.612-.312c.145-.216.216-.596.216-1.14 0-.544-.072-.92-.216-1.128a.693.693 0 00-.611-.324zM52.332 21.54c-.736 0-1.316-.268-1.74-.804-.416-.544-.624-1.308-.624-2.292 0-1 .216-1.772.648-2.316.432-.552 1.016-.828 1.752-.828.424 0 .78.104 1.068.312.288.208.508.484.66.828v-3.492h2.424v8.472h-2.184l-.072-1.188c-.168.4-.416.72-.744.96-.328.232-.724.348-1.188.348zm.936-1.728c.256 0 .456-.116.6-.348.152-.232.228-.584.228-1.056 0-.44-.072-.776-.216-1.008a.661.661 0 00-.612-.36.763.763 0 00-.636.312c-.152.2-.228.556-.228 1.068s.076.872.228 1.08a.743.743 0 00.636.312zM60.768 21.54c-1.04 0-1.856-.272-2.448-.816-.592-.544-.888-1.312-.888-2.304 0-.664.136-1.228.408-1.692a2.645 2.645 0 011.14-1.056c.488-.248 1.052-.372 1.692-.372.656 0 1.212.124 1.668.372.464.24.816.576 1.056 1.008.248.432.372.936.372 1.512 0 .296-.02.548-.06.756H59.76c.056.36.168.608.336.744.176.128.408.192.696.192.248 0 .444-.052.588-.156a.843.843 0 00.324-.432l1.944.576c-.104.368-.3.676-.588.924a2.927 2.927 0 01-1.032.564c-.4.12-.82.18-1.26.18zm-.096-4.596c-.256 0-.46.072-.612.216-.144.144-.24.388-.288.732h1.704c-.032-.312-.112-.548-.24-.708-.12-.16-.308-.24-.564-.24zM67.069 12.948v6.24c0 .256.04.44.12.552.08.112.22.168.42.168.104 0 .192-.004.264-.012.072-.016.152-.04.24-.072l-.132 1.368c-.144.104-.348.188-.612.252a3.156 3.156 0 01-.768.096c-.696 0-1.196-.156-1.5-.468-.304-.312-.456-.824-.456-1.536v-6.588h2.424zM70.193 19.14c.424 0 .752.104.984.312.24.208.36.5.36.876s-.12.668-.36.876c-.232.208-.56.312-.984.312-.424 0-.756-.104-.996-.312-.232-.208-.348-.5-.348-.876s.116-.668.348-.876c.24-.208.572-.312.996-.312zM73.79 14.892c-.48 0-.827-.08-1.043-.24-.208-.168-.312-.444-.312-.828 0-.384.104-.66.312-.828.216-.168.564-.252 1.044-.252.488 0 .836.084 1.044.252.208.168.312.444.312.828 0 .384-.104.66-.312.828-.208.16-.556.24-1.044.24zm1.213.528v6h-2.424v-6h2.424zM79.176 15.3c.648 0 1.216.124 1.704.372.496.24.88.596 1.152 1.068.272.464.408 1.024.408 1.68 0 .656-.136 1.22-.408 1.692-.272.464-.656.82-1.152 1.068-.488.24-1.056.36-1.704.36-.648 0-1.216-.12-1.704-.36a2.8 2.8 0 01-1.152-1.068c-.272-.472-.408-1.036-.408-1.692 0-.656.136-1.216.408-1.68.28-.472.664-.828 1.152-1.068.488-.248 1.056-.372 1.704-.372zm0 1.668a.693.693 0 00-.612.324c-.144.208-.216.584-.216 1.128 0 .544.072.924.216 1.14a.7.7 0 00.612.312.7.7 0 00.612-.312c.144-.216.216-.596.216-1.14 0-.544-.072-.92-.216-1.128a.693.693 0 00-.612-.324z" fill="#272B47"/><path d="M26.113 13.755l-7.886-3.43a1.2 1.2 0 00-1.58.623l-1.913 4.402a1.2 1.2 0 00.622 1.579l7.886 3.429a1.2 1.2 0 001.58-.622l1.913-4.402a1.2 1.2 0 00-.622-1.579z" stroke="#575BA5" stroke-width="1.6"/><path fill-rule="evenodd" clip-rule="evenodd" d="M18.383 20.313h-3.917a.391.391 0 00-.392.39v.781c0 .216.176.391.392.391h3.917a.391.391 0 00.391-.39v-.782a.391.391 0 00-.391-.39zM6.633 4.688h5.483a.391.391 0 00.392-.391v-.781a.391.391 0 00-.392-.391H6.633a.391.391 0 00-.392.39v.782c0 .216.175.39.392.39zm0 3.125h5.483a.391.391 0 00.392-.391V6.64a.391.391 0 00-.392-.391H6.633a.391.391 0 00-.392.39v.782c0 .216.175.39.392.39zm14.584-3.029L17.111.688A2.353 2.353 0 0015.45 0H5.458a2.355 2.355 0 00-2.35 2.348v11.284l1.567-.45V2.348c0-.43.352-.785.783-.785h8.619v5.081c0 .65.524 1.168 1.175 1.168h5.09v1.312l1.567.681V6.444c0-.62-.25-1.22-.69-1.66zM4.674 17.025l-1.566.45v5.182A2.347 2.347 0 005.458 25h14.1c1.297 0 2.35-1.05 2.35-2.343v-.877l-1.567-.681v1.558c0 .43-.352.781-.783.781h-14.1a.785.785 0 01-.784-.781v-5.632zM15.642 1.591a.77.77 0 01.363.205l4.106 4.096a.767.767 0 01.206.361h-4.675V1.591z" fill="#575BA5"/><path d="M.015 16a.4.4 0 01.278-.492l7.575-2.101a.4.4 0 01.493.278l.214.771a.4.4 0 01-.279.493l-7.575 2.1a.4.4 0 01-.493-.278L.015 16z" fill="#575BA5"/></svg>
