<svg width="131" height="56" viewBox="0 0 131 56" fill="none" xmlns="http://www.w3.org/2000/svg">
<rect x="4" y="25.5732" width="123" height="31" transform="rotate(-12 4 25.5732)" fill="#0D5DFD"/>
<rect y="11" width="123" height="31" fill="#5D93FD"/>
<path d="M13.816 31.12C12.808 31.12 12.004 30.848 11.404 30.304C10.804 29.76 10.504 28.896 10.504 27.712C10.504 26.904 10.656 26.248 10.96 25.744C11.264 25.232 11.676 24.856 12.196 24.616C12.724 24.368 13.324 24.244 13.996 24.244C14.404 24.244 14.788 24.288 15.148 24.376C15.516 24.464 15.856 24.588 16.168 24.748L15.496 26.44C15.224 26.32 14.968 26.224 14.728 26.152C14.496 26.08 14.252 26.044 13.996 26.044C13.652 26.044 13.372 26.18 13.156 26.452C12.94 26.724 12.832 27.14 12.832 27.7C12.832 28.276 12.94 28.688 13.156 28.936C13.38 29.176 13.664 29.296 14.008 29.296C14.336 29.296 14.664 29.244 14.992 29.14C15.328 29.036 15.644 28.892 15.94 28.708V30.532C15.668 30.708 15.36 30.852 15.016 30.964C14.672 31.068 14.272 31.12 13.816 31.12ZM23.5968 27.664C23.5968 28.776 23.3008 29.632 22.7088 30.232C22.1168 30.824 21.3048 31.12 20.2728 31.12C19.6328 31.12 19.0648 30.988 18.5688 30.724C18.0728 30.452 17.6808 30.06 17.3928 29.548C17.1128 29.028 16.9728 28.4 16.9728 27.664C16.9728 26.568 17.2688 25.724 17.8608 25.132C18.4528 24.54 19.2688 24.244 20.3088 24.244C20.9488 24.244 21.5128 24.376 22.0008 24.64C22.4968 24.904 22.8848 25.292 23.1648 25.804C23.4528 26.308 23.5968 26.928 23.5968 27.664ZM19.3008 27.664C19.3008 28.232 19.3768 28.668 19.5288 28.972C19.6808 29.268 19.9368 29.416 20.2968 29.416C20.6488 29.416 20.8968 29.268 21.0408 28.972C21.1928 28.668 21.2688 28.232 21.2688 27.664C21.2688 27.096 21.1928 26.668 21.0408 26.38C20.8968 26.092 20.6448 25.948 20.2848 25.948C19.9408 25.948 19.6888 26.092 19.5288 26.38C19.3768 26.668 19.3008 27.096 19.3008 27.664ZM29.0534 24.244C29.7414 24.244 30.3014 24.436 30.7334 24.82C31.1654 25.204 31.3814 25.824 31.3814 26.68V31H29.0894V27.376C29.0894 26.936 29.0254 26.604 28.8974 26.38C28.7694 26.156 28.5654 26.044 28.2854 26.044C27.8534 26.044 27.5614 26.22 27.4094 26.572C27.2654 26.924 27.1934 27.432 27.1934 28.096V31H24.9014V24.364H26.6294L26.9414 25.24H27.0254C27.2334 24.928 27.5054 24.684 27.8414 24.508C28.1854 24.332 28.5894 24.244 29.0534 24.244ZM36.1924 29.308C36.4004 29.308 36.5884 29.288 36.7564 29.248C36.9324 29.2 37.1124 29.144 37.2964 29.08V30.748C37.0484 30.852 36.7844 30.94 36.5044 31.012C36.2244 31.084 35.8684 31.12 35.4364 31.12C35.0044 31.12 34.6244 31.052 34.2964 30.916C33.9764 30.78 33.7244 30.548 33.5404 30.22C33.3564 29.884 33.2644 29.416 33.2644 28.816V26.08H32.4604V25.144L33.4804 24.424L34.0684 23.032H35.5684V24.364H37.2004V26.08H35.5684V28.66C35.5684 29.092 35.7764 29.308 36.1924 29.308ZM41.448 24.244C42.416 24.244 43.18 24.496 43.74 25C44.3 25.504 44.58 26.264 44.58 27.28V28.3H40.488C40.504 28.644 40.632 28.928 40.872 29.152C41.12 29.376 41.476 29.488 41.94 29.488C42.356 29.488 42.736 29.448 43.08 29.368C43.424 29.288 43.78 29.16 44.148 28.984V30.628C43.828 30.796 43.476 30.92 43.092 31C42.716 31.08 42.24 31.12 41.664 31.12C40.992 31.12 40.392 31.004 39.864 30.772C39.344 30.532 38.932 30.16 38.628 29.656C38.324 29.152 38.172 28.508 38.172 27.724C38.172 26.924 38.308 26.268 38.58 25.756C38.86 25.244 39.244 24.864 39.732 24.616C40.228 24.368 40.8 24.244 41.448 24.244ZM41.532 25.804C41.26 25.804 41.032 25.888 40.848 26.056C40.672 26.224 40.568 26.492 40.536 26.86H42.504C42.496 26.564 42.408 26.316 42.24 26.116C42.08 25.908 41.844 25.804 41.532 25.804ZM50.0299 24.244C50.7179 24.244 51.2779 24.436 51.7099 24.82C52.1419 25.204 52.3579 25.824 52.3579 26.68V31H50.0659V27.376C50.0659 26.936 50.0019 26.604 49.8739 26.38C49.7459 26.156 49.5419 26.044 49.2619 26.044C48.8299 26.044 48.5379 26.22 48.3859 26.572C48.2419 26.924 48.1699 27.432 48.1699 28.096V31H45.8779V24.364H47.6059L47.9179 25.24H48.0019C48.2099 24.928 48.4819 24.684 48.8179 24.508C49.1619 24.332 49.5659 24.244 50.0299 24.244ZM57.169 29.308C57.377 29.308 57.565 29.288 57.733 29.248C57.909 29.2 58.089 29.144 58.273 29.08V30.748C58.025 30.852 57.761 30.94 57.481 31.012C57.201 31.084 56.845 31.12 56.413 31.12C55.981 31.12 55.601 31.052 55.273 30.916C54.953 30.78 54.701 30.548 54.517 30.22C54.333 29.884 54.241 29.416 54.241 28.816V26.08H53.437V25.144L54.457 24.424L55.045 23.032H56.545V24.364H58.177V26.08H56.545V28.66C56.545 29.092 56.753 29.308 57.169 29.308ZM67.5365 24.244C68.2965 24.244 68.8765 24.436 69.2765 24.82C69.6765 25.204 69.8765 25.824 69.8765 26.68V31H67.5845V27.388C67.5845 26.884 67.5165 26.536 67.3805 26.344C67.2445 26.144 67.0445 26.044 66.7805 26.044C66.4125 26.044 66.1565 26.208 66.0125 26.536C65.8685 26.856 65.7965 27.312 65.7965 27.904V31H63.5045V27.388C63.5045 26.908 63.4405 26.564 63.3125 26.356C63.1845 26.148 62.9925 26.044 62.7365 26.044C62.3445 26.044 62.0765 26.22 61.9325 26.572C61.7965 26.924 61.7285 27.432 61.7285 28.096V31H59.4365V24.364H61.1645L61.5005 25.18H61.5605C61.7365 24.908 61.9885 24.684 62.3165 24.508C62.6525 24.332 63.0645 24.244 63.5525 24.244C64.0405 24.244 64.4405 24.328 64.7525 24.496C65.0725 24.656 65.3325 24.88 65.5325 25.168H65.6045C65.8125 24.872 66.0805 24.644 66.4085 24.484C66.7445 24.324 67.1205 24.244 67.5365 24.244ZM77.7725 27.664C77.7725 28.776 77.4765 29.632 76.8845 30.232C76.2925 30.824 75.4805 31.12 74.4485 31.12C73.8085 31.12 73.2405 30.988 72.7445 30.724C72.2485 30.452 71.8565 30.06 71.5685 29.548C71.2885 29.028 71.1485 28.4 71.1485 27.664C71.1485 26.568 71.4445 25.724 72.0365 25.132C72.6285 24.54 73.4445 24.244 74.4845 24.244C75.1245 24.244 75.6885 24.376 76.1765 24.64C76.6725 24.904 77.0605 25.292 77.3405 25.804C77.6285 26.308 77.7725 26.928 77.7725 27.664ZM73.4765 27.664C73.4765 28.232 73.5525 28.668 73.7045 28.972C73.8565 29.268 74.1125 29.416 74.4725 29.416C74.8245 29.416 75.0725 29.268 75.2165 28.972C75.3685 28.668 75.4445 28.232 75.4445 27.664C75.4445 27.096 75.3685 26.668 75.2165 26.38C75.0725 26.092 74.8205 25.948 74.4605 25.948C74.1165 25.948 73.8645 26.092 73.7045 26.38C73.5525 26.668 73.4765 27.096 73.4765 27.664ZM81.1412 31.12C80.4612 31.12 79.8972 30.828 79.4492 30.244C79.0092 29.66 78.7892 28.808 78.7892 27.688C78.7892 26.552 79.0132 25.696 79.4612 25.12C79.9172 24.536 80.5052 24.244 81.2252 24.244C81.6732 24.244 82.0292 24.336 82.2932 24.52C82.5652 24.704 82.7892 24.936 82.9652 25.216H83.0132C82.9812 25.048 82.9532 24.816 82.9292 24.52C82.9132 24.224 82.9052 23.936 82.9052 23.656V21.88H85.2092V31H83.4812L82.9892 30.16H82.9052C82.7452 30.424 82.5252 30.652 82.2452 30.844C81.9652 31.028 81.5972 31.12 81.1412 31.12ZM82.0772 29.308C82.4452 29.308 82.7052 29.192 82.8572 28.96C83.0092 28.728 83.0892 28.372 83.0972 27.892V27.712C83.0972 27.192 83.0212 26.792 82.8692 26.512C82.7252 26.232 82.4532 26.092 82.0532 26.092C81.7812 26.092 81.5532 26.224 81.3692 26.488C81.1932 26.752 81.1052 27.164 81.1052 27.724C81.1052 28.276 81.1932 28.68 81.3692 28.936C81.5532 29.184 81.7892 29.308 82.0772 29.308ZM89.7761 24.244C90.7441 24.244 91.5081 24.496 92.0681 25C92.6281 25.504 92.9081 26.264 92.9081 27.28V28.3H88.8161C88.8321 28.644 88.9601 28.928 89.2001 29.152C89.4481 29.376 89.8041 29.488 90.2681 29.488C90.6841 29.488 91.0641 29.448 91.4081 29.368C91.7521 29.288 92.1081 29.16 92.4761 28.984V30.628C92.1561 30.796 91.8041 30.92 91.4201 31C91.0441 31.08 90.5681 31.12 89.9921 31.12C89.3201 31.12 88.7201 31.004 88.1921 30.772C87.6721 30.532 87.2601 30.16 86.9561 29.656C86.6521 29.152 86.5001 28.508 86.5001 27.724C86.5001 26.924 86.6361 26.268 86.9081 25.756C87.1881 25.244 87.5721 24.864 88.0601 24.616C88.5561 24.368 89.1281 24.244 89.7761 24.244ZM89.8601 25.804C89.5881 25.804 89.3601 25.888 89.1761 26.056C89.0001 26.224 88.8961 26.492 88.8641 26.86H90.8321C90.8241 26.564 90.7361 26.316 90.5681 26.116C90.4081 25.908 90.1721 25.804 89.8601 25.804ZM96.4981 31H94.2061V21.88H96.4981V31ZM97.797 30.028C97.797 29.612 97.917 29.32 98.157 29.152C98.405 28.984 98.701 28.9 99.045 28.9C99.373 28.9 99.653 28.984 99.885 29.152C100.125 29.32 100.245 29.612 100.245 30.028C100.245 30.42 100.125 30.704 99.885 30.88C99.653 31.056 99.373 31.144 99.045 31.144C98.701 31.144 98.405 31.056 98.157 30.88C97.917 30.704 97.797 30.42 97.797 30.028ZM102.718 21.688C103.046 21.688 103.33 21.756 103.57 21.892C103.818 22.028 103.942 22.3 103.942 22.708C103.942 23.1 103.818 23.368 103.57 23.512C103.33 23.648 103.046 23.716 102.718 23.716C102.382 23.716 102.094 23.648 101.854 23.512C101.622 23.368 101.506 23.1 101.506 22.708C101.506 22.3 101.622 22.028 101.854 21.892C102.094 21.756 102.382 21.688 102.718 21.688ZM103.858 24.364V31H101.566V24.364H103.858ZM111.792 27.664C111.792 28.776 111.496 29.632 110.904 30.232C110.312 30.824 109.5 31.12 108.468 31.12C107.828 31.12 107.26 30.988 106.764 30.724C106.268 30.452 105.876 30.06 105.588 29.548C105.308 29.028 105.168 28.4 105.168 27.664C105.168 26.568 105.464 25.724 106.056 25.132C106.648 24.54 107.464 24.244 108.504 24.244C109.144 24.244 109.708 24.376 110.196 24.64C110.692 24.904 111.08 25.292 111.36 25.804C111.648 26.308 111.792 26.928 111.792 27.664ZM107.496 27.664C107.496 28.232 107.572 28.668 107.724 28.972C107.876 29.268 108.132 29.416 108.492 29.416C108.844 29.416 109.092 29.268 109.236 28.972C109.388 28.668 109.464 28.232 109.464 27.664C109.464 27.096 109.388 26.668 109.236 26.38C109.092 26.092 108.84 25.948 108.48 25.948C108.136 25.948 107.884 26.092 107.724 26.38C107.572 26.668 107.496 27.096 107.496 27.664Z" fill="white"/>
</svg>
