<svg width="312" height="201" fill="none" xmlns="http://www.w3.org/2000/svg"><rect x="10.21" y="12.21" width="23.878" height="24.297" rx="1.466" stroke="#6B7280" stroke-width=".419"/><path stroke="#6B7280" stroke-width="2.095" d="M19.635 15.98h4.496M12.049 21.045h14.022M12.049 25.157h11.132M12.095 29.385h12.002M12.095 33.574h15.807"/><rect x="54.615" y="15.561" width="23.878" height="15.919" rx="1.466" stroke="#6B7280" stroke-width=".419"/><path stroke="#6B7280" stroke-width="2.095" d="M61.108 19.331h10.473M56.5 24.358h11.132M56.5 28.547h15.808"/><rect x="13.142" y="49.493" width="23.878" height="24.297" rx="1.466" stroke="#6B7280" stroke-width=".419"/><path stroke="#6B7280" stroke-width="2.095" d="M20.473 53.264h7.541M14.979 58.329l17.64-.046M15.027 62.48h5.865M15.027 66.669h6.284M15.027 70.858H25.5"/><rect x="44.98" y="44.885" width="23.878" height="20.946" rx="1.466" stroke="#6B7280" stroke-width=".419"/><path stroke="#6B7280" stroke-width="2.095" d="M54.405 48.655h4.496M46.865 54.101h6.703M46.865 58.291h20.108M46.865 62.48h15.808"/><path stroke="#6B7280" stroke-width=".419" d="M35.758 21.169l7.541 32.256M38.314 70.111l4.608-6.703M65.052 33.064L57.93 43.537"/><rect x="1" y="1" width="88" height="88" rx="3" stroke="#D7EFDE" stroke-width="2"/><rect x="121.209" y="12.21" width="23.878" height="24.297" rx="1.466" stroke="#6B7280" stroke-width=".419"/><path stroke="#6B7280" stroke-width="2.095" d="M130.635 15.98h4.496M123.049 21.045h14.022M123.049 25.157h11.132M123.095 29.385h12.002M123.095 33.574h15.807"/><rect x="165.615" y="15.561" width="23.878" height="15.919" rx="1.466" stroke="#6B7280" stroke-width=".419"/><path stroke="#6B7280" stroke-width="2.095" d="M172.108 19.331h10.473M167.5 24.358h11.132M167.5 28.547h15.808"/><rect x="124.142" y="49.493" width="23.878" height="24.297" rx="1.466" stroke="#6B7280" stroke-width=".419"/><path stroke="#6B7280" stroke-width="2.095" d="M131.473 53.264h7.541M125.979 58.329l17.64-.046M126.027 62.48h5.865M126.027 66.669h6.284M126.027 70.858H136.5"/><rect x="155.98" y="44.885" width="23.878" height="20.946" rx="1.466" stroke="#6B7280" stroke-width=".419"/><path stroke="#6B7280" stroke-width="2.095" d="M165.405 48.655h4.496M157.865 54.101h6.703M157.865 58.291h20.108M157.865 62.48h15.808"/><path stroke="#6B7280" stroke-width=".419" d="M146.758 21.169l7.541 32.256M149.314 70.111l4.608-6.703M176.052 33.064l-7.122 10.473"/><rect x="112" y="1" width="88" height="88" rx="3" stroke="#D7EFDE" stroke-width="2"/><rect x="232.209" y="12.21" width="23.878" height="24.297" rx="1.466" stroke="#6B7280" stroke-width=".419"/><path stroke="#6B7280" stroke-width="2.095" d="M241.635 15.98h4.496M234.049 21.045h14.022M234.049 25.157h11.132M234.095 29.385h12.002M234.095 33.574h15.807"/><rect x="276.615" y="15.561" width="23.878" height="15.919" rx="1.466" stroke="#6B7280" stroke-width=".419"/><path stroke="#6B7280" stroke-width="2.095" d="M283.108 19.331h10.473M278.5 24.358h11.132M278.5 28.547h15.808"/><rect x="235.142" y="49.493" width="23.878" height="24.297" rx="1.466" stroke="#6B7280" stroke-width=".419"/><path stroke="#6B7280" stroke-width="2.095" d="M242.473 53.264h7.541M236.979 58.329l17.64-.046M237.027 62.48h5.865M237.027 66.669h6.284M237.027 70.858H247.5"/><rect x="266.98" y="44.885" width="23.878" height="20.946" rx="1.466" stroke="#6B7280" stroke-width=".419"/><path stroke="#6B7280" stroke-width="2.095" d="M276.405 48.655h4.496M268.865 54.101h6.703M268.865 58.291h20.108M268.865 62.48h15.808"/><path stroke="#6B7280" stroke-width=".419" d="M257.758 21.169l7.541 32.256M260.314 70.111l4.608-6.703M287.052 33.064l-7.122 10.473"/><rect x="223" y="1" width="88" height="88" rx="3" stroke="#D7EFDE" stroke-width="2"/><rect x="10.21" y="123.209" width="23.878" height="24.297" rx="1.466" stroke="#6B7280" stroke-width=".419"/><path stroke="#6B7280" stroke-width="2.095" d="M19.635 126.98h4.496M12.049 132.045h14.022M12.049 136.157h11.132M12.095 140.385h12.002M12.095 144.574h15.807"/><rect x="54.615" y="126.561" width="23.878" height="15.919" rx="1.466" stroke="#6B7280" stroke-width=".419"/><path stroke="#6B7280" stroke-width="2.095" d="M61.108 130.331h10.473M56.5 135.358h11.132M56.5 139.547h15.808"/><rect x="13.142" y="160.493" width="23.878" height="24.297" rx="1.466" stroke="#6B7280" stroke-width=".419"/><path stroke="#6B7280" stroke-width="2.095" d="M20.473 164.264h7.541M14.979 169.329l17.64-.046M15.027 173.48h5.865M15.027 177.669h6.284M15.027 181.858H25.5"/><rect x="44.98" y="155.885" width="23.878" height="20.946" rx="1.466" stroke="#6B7280" stroke-width=".419"/><path stroke="#6B7280" stroke-width="2.095" d="M54.405 159.655h4.496M46.865 165.101h6.703M46.865 169.291h20.108M46.865 173.48h15.808"/><path stroke="#6B7280" stroke-width=".419" d="M35.758 132.169l7.541 32.256M38.314 181.111l4.608-6.703M65.052 144.064l-7.122 10.473"/><rect x="1" y="112" width="88" height="88" rx="3" stroke="#DBEAFE" stroke-width="2"/><rect x="121.209" y="123.209" width="23.878" height="24.297" rx="1.466" stroke="#6B7280" stroke-width=".419"/><path stroke="#6B7280" stroke-width="2.095" d="M130.635 126.98h4.496M123.049 132.045h14.022M123.049 136.157h11.132M123.095 140.385h12.002M123.095 144.574h15.807"/><rect x="165.615" y="126.561" width="23.878" height="15.919" rx="1.466" stroke="#6B7280" stroke-width=".419"/><path stroke="#6B7280" stroke-width="2.095" d="M172.108 130.331h10.473M167.5 135.358h11.132M167.5 139.547h15.808"/><rect x="124.142" y="160.493" width="23.878" height="24.297" rx="1.466" stroke="#6B7280" stroke-width=".419"/><path stroke="#6B7280" stroke-width="2.095" d="M131.473 164.264h7.541M125.979 169.329l17.64-.046M126.027 173.48h5.865M126.027 177.669h6.284M126.027 181.858H136.5"/><rect x="155.98" y="155.885" width="23.878" height="20.946" rx="1.466" stroke="#6B7280" stroke-width=".419"/><path stroke="#6B7280" stroke-width="2.095" d="M165.405 159.655h4.496M157.865 165.101h6.703M157.865 169.291h20.108M157.865 173.48h15.808"/><path stroke="#6B7280" stroke-width=".419" d="M146.758 132.169l7.541 32.256M149.314 181.111l4.608-6.703M176.052 144.064l-7.122 10.473"/><rect x="112" y="112" width="88" height="88" rx="3" stroke="#DBEAFE" stroke-width="2"/></svg>
