<svg width="370" height="261" fill="none" xmlns="http://www.w3.org/2000/svg"><path d="M198.875 157.484h154.014a3.39 3.39 0 013.39 3.391v17.732H195.484v-17.732a3.39 3.39 0 013.391-3.391z" stroke="#D1D5DB" stroke-width=".969"/><path stroke="#D1D5DB" stroke-width="4.843" d="M201.414 163.842h29.929M256.997 163.842h93.353M256.997 172.394h74.112"/><path d="M195.484 179.016h160.795v21.123H195.484v-21.123z" stroke="#D1D5DB" stroke-width=".969"/><path stroke="#D1D5DB" stroke-width="4.843" d="M201.414 185.374h29.929M256.997 185.374h93.353M256.997 193.926h74.112"/><path d="M195.484 200.326h160.795v21.123H195.484v-21.123z" stroke="#D1D5DB" stroke-width=".969"/><path stroke="#D1D5DB" stroke-width="4.843" d="M201.414 206.685h29.929M256.997 206.685h93.353M256.997 215.236h74.112"/><path d="M195.484 221.637h160.795v21.122H195.484v-21.122z" stroke="#D1D5DB" stroke-width=".969"/><path stroke="#D1D5DB" stroke-width="4.843" d="M201.414 227.995h29.929M256.997 227.995h93.353M256.997 236.546h74.112"/><path stroke="#FCA5A5" stroke-width="6.727" d="M278.846 258.59l82.953-87.219M277.75 171.285l89.115 87.219"/><rect x=".5" y=".5" width="57" height="58" rx="3.5" stroke="#6B7280"/><path stroke="#6B7280" stroke-width="5" d="M23 9.5h10.731M4.892 21.592h33.471M4.892 31.408h26.572M5 41.5h28.651M5 51.5h37.735"/><rect x="106.5" y="8.5" width="57" height="38" rx="3.5" stroke="#6B7280"/><path stroke="#6B7280" stroke-width="5" d="M122 17.5h25M111 29.5h26.573M111 39.5h37.735"/><rect x="7.5" y="89.5" width="57" height="58" rx="3.5" stroke="#6B7280"/><path stroke="#6B7280" stroke-width="5" d="M25 98.5h18M11.885 110.592l42.108-.11M12 120.5h14M12 130.5h15M12 140.5h25"/><rect x="83.5" y="78.5" width="57" height="50" rx="3.5" stroke="#6B7280"/><path stroke="#6B7280" stroke-width="5" d="M106 87.5h10.731M88 100.5h16M88 110.5h48M88 120.5h37.735"/><path stroke="#D7EFDE" stroke-width="6.944" d="M129.484 181.65l85.638-90.043M98.384 148.475l35 33.043"/><path stroke="#6B7280" d="M61.487 21.886l18 77M67.588 138.717l11-16M131.413 50.281l-17 25"/></svg>
